<svg xmlns="http://www.w3.org/2000/svg" width="637.297" height="1000"><path d="M213.779 17.504C96.019 58.264 12.917 165.134 7.482 288.398a73.35 73.35 0 0070.326 76.575 73.35 73.35 0 0076.578-69.806c2.722-61.77 43.753-117.091 107.314-139.088 63.588-21.971 134.493-4.453 178.684 42.717 43.39 46.228 51.3 110.072 25.005 165.659L17.902 878.622a73.358 73.358 0 0055.741 121.377h490.208a73.35 73.35 0 0073.453-72.93 73.35 73.35 0 00-73.453-73.453H234.616l352.158-405.292a73.358 73.358 0 0010.417-15.1C652.498 322.732 632.5 189.14 547.701 98.78 462.921 8.293 331.554-23.176 213.775 17.515z" color="#000"/></svg>