<svg xmlns="http://www.w3.org/2000/svg" width="637.128" height="1000"><path d="M73.451 0A73.35 73.35 0 000 72.934a73.35 73.35 0 0073.451 73.447h353.715L251.093 410.495a73.357 73.357 0 0046.882 113.046c79.895 15.522 141.437 55.313 168.264 108.873 28.192 56.323 18.679 121.674-25.527 168.782-44.19 47.165-115.616 64.687-179.202 42.72-63.56-22.004-104.588-77.317-107.313-139.094a73.35 73.35 0 00-76.573-69.808 73.35 73.35 0 00-69.808 76.581c5.431 123.262 88.01 230.136 205.77 270.89 117.773 40.687 249.135 9.226 333.92-81.267 84.795-90.361 105.317-223.949 50.008-334.443C561.04 493.95 481.573 469.04 409.456 437.06l215.667-323.497A73.357 73.357 0 00564.175 0z" color="#000"/></svg>