<svg xmlns="http://www.w3.org/2000/svg" width="629.56" height="1000"><path d="M109.945 0a73.315 73.315 0 00-73.421 73.414v329.053A73.315 73.315 0 0091.717 473.8l194.721 48.944a73.315 73.315 0 004.169.53c79.854 15.515 141.362 55.808 168.174 109.341 28.176 56.289 18.67 121.093-25.512 168.17a73.315 73.315 0 00-.529 0c-44.171 47.14-115.038 65.171-178.59 43.216-63.527-21.997-104.535-77.276-107.256-139.015a73.308 73.308 0 00-76.536-69.77A73.308 73.308 0 00.074 711.75c5.428 123.194 88.487 230.011 206.181 270.743 117.71 40.668 249.003 9.222 333.74-81.222 84.757-90.308 104.743-223.831 49.463-334.262-52.649-105.108-158.763-165.562-271.264-187.438l-135.36-33.857V146.827h373.312a73.308 73.308 0 0073.413-73.413A73.308 73.308 0 00556.146 0z" color="#000"/></svg>