<svg xmlns="http://www.w3.org/2000/svg" width="623.946" height="1000"><path d="M325.342 0a73.33 73.33 0 00-4.959.144 73.33 73.33 0 00-62.562 43.128L28.668 554.78a73.33 73.33 0 00-4.555 14.052C8.712 605.651 0 645.847 0 688.026 0 859.39 140.606 1000 311.974 1000c171.364 0 311.973-140.606 311.973-311.974 0-171.364-140.61-311.974-311.973-311.97-15.24 0-29.836 2.396-44.508 4.55L391.76 103.22a73.33 73.33 0 00-37.07-96.87A73.33 73.33 0 00325.342.008zm-13.368 522.944c92.107 0 165.082 72.975 165.082 165.078 0 92.107-72.975 165.222-165.082 165.222S146.895 780.13 146.895 688.022c0-92.103 72.975-165.078 165.079-165.078z" color="#000"/></svg>