<svg xmlns="http://www.w3.org/2000/svg" width="582.334" height="1000"><path d="M291.168 0C140.383 0 17.228 124.876 17.228 276.012c0 80.882 36 153.486 91.906 204.215C43.211 534.2 0 615.444 0 706.765 0 867.445 130.946 1000 291.168 1000s291.167-132.556 291.167-293.235c0-91.321-43.211-172.562-109.138-226.538 55.911-50.732 91.915-123.333 91.915-204.215C565.112 124.876 441.952 0 291.168 0zm0 146.343c70.654 0 127.049 56.935 127.049 129.669 0 72.733-56.391 129.252-127.05 129.252-70.654 0-127.048-56.519-127.048-129.252 0-72.734 56.398-129.672 127.049-129.672zm0 413.53c80.092 0 144.276 64.615 144.276 146.892 0 82.28-64.184 146.343-144.276 146.343-80.092 0-144.276-64.063-144.276-146.343 0-82.277 64.184-146.892 144.276-146.892z" color="#000"/></svg>