<svg xmlns="http://www.w3.org/2000/svg" width="623.946" height="1000"><path d="M298.605 999.999a73.33 73.33 0 004.96-.14 73.33 73.33 0 0062.562-43.132l229.149-511.499a73.33 73.33 0 004.554-14.06c15.402-36.812 24.113-77.004 24.113-119.19C623.947 140.61 483.341 0 311.973 0 140.61 0 0 140.606 0 311.974 0 483.337 140.606 623.95 311.974 623.947c15.235 0 29.835-2.4 44.507-4.55L232.188 896.78a73.33 73.33 0 0037.07 96.873 73.33 73.33 0 0029.347 6.334zm13.369-522.94c-92.108 0-165.083-72.978-165.083-165.082 0-92.107 72.975-165.218 165.083-165.218 92.103 0 165.078 73.111 165.078 165.218 0 92.107-72.975 165.083-165.078 165.083z" color="#000"/></svg>