<svg xmlns="http://www.w3.org/2000/svg" height="1000" width="633.6"><path d="M73.334 0A73.34 73.34 0 000 73.334v853.334A73.34 73.34 0 0073.334 1000h287.732a73.34 73.34 0 00.532-.002C516.583 998.875 633.6 859.47 633.6 700.268c0-88.82-36.46-171.33-95.551-227.213 53.423-50.191 86.816-121.317 86.816-199.455C624.865 128.57 509.95 7.572 365.113.098A73.34 73.34 0 00361.334 0h-288zm73.334 146.668h211.867C426.396 150.675 478.2 205.492 478.2 273.6c0 68.107-51.803 122.926-119.664 126.933H146.668V146.668zm0 400.533h213.746c66.009.674 126.52 63.76 126.52 153.067 0 89.316-60.567 152.57-126.37 153.066H146.668V547.201z" color="#000"/></svg>