<svg xmlns="http://www.w3.org/2000/svg" height="1000" width="882.134"><path d="M492.8 0C221.007 0 0 225.278 0 500c0 274.668 220.786 500 492.8 500 148.15 0 281.769-67.068 371.749-172.357a73.334 73.334 0 00-8.106-103.393 73.334 73.334 0 00-103.392 8.107c-63.62 74.445-156.133 120.977-260.25 120.977-191.452 0-346.133-156.534-346.133-353.334 0-196.739 154.986-353.325 346.12-353.332a340.191 340.191 0 01227.282 87.096 73.334 73.334 0 00103.56-5.567 73.334 73.334 0 00-5.566-103.56A487.012 487.012 0 00492.813 0h-.012z" color="#000" /></svg>