<svg xmlns="http://www.w3.org/2000/svg" height="1000" width="847.782"><path d="M488.563 0C218.688 0 0 223.482 0 495.496c0 272.07 218.918 495.229 488.295 495.229 70.355 0 147.608-16.757 215.107-45.81a73.345 73.345 0 00144.381-18.194V504.83a73.345 73.345 0 00-73.338-73.339H552.3a73.338 73.338 0 00-73.338 73.338 73.338 73.338 0 0073.338 73.336h148.808v201.17c-40.509 24.553-160.443 64.713-212.812 64.713-188.783 0-341.62-154.463-341.62-348.553 0-194.146 152.535-348.82 341.887-348.82 114.7 0 172.742 55.502 192.375 89.783a73.338 73.338 0 00100.086 27.191 73.338 73.338 0 0027.192-100.086C760.645 80.505 651.213 0 488.562 0z" color="#000" /></svg>