<svg xmlns="http://www.w3.org/2000/svg" width="985.391" height="1000"><path d="M492.696 0C220.714 0 0 225.391 0 500c0 274.609 220.714 500 492.696 500 113.696 0 218.139-39.8 301.543-105.706l57.332 57.332a73.334 73.334 0 00103.638 0 73.334 73.334 0 000-103.638l-60.363-60.364C951.694 706.056 985.39 606.845 985.39 500c0-274.609-220.714-500-492.695-500zm0 146.913C684.05 146.913 839.03 303.319 839.03 500c0 66.93-19.08 128.473-50.303 181.505l-60.089-60.088a73.334 73.334 0 00-53.06-21.362A73.334 73.334 0 00625 621.417a73.334 73.334 0 000 103.638l65.05 65.05c-56.054 39.585-123.846 63.12-197.354 63.12-191.356 0-345.783-156.544-345.783-353.225 0-196.68 154.427-353.087 345.783-353.087z" color="#000" /></svg>