<svg xmlns="http://www.w3.org/2000/svg" width="684.476" height="1000"><path d="M74.006.022A73.336 73.336 0 00.551 73.477v395.801A73.33 73.33 0 000 473.964a73.33 73.33 0 00.551 5.788v446.793A73.33 73.33 0 0074.006 1000a73.33 73.33 0 0073.455-73.455V547.419h171.854l228.633 395.388a73.33 73.33 0 0099.915 27.012 73.33 73.33 0 0026.598-100.467L473.115 520.407c34.54-16.03 64.28-38.289 87.237-65.186 44.296-51.9 65.186-117.35 65.186-181.776 0-64.426-20.89-129.325-65.186-181.226C516.055 40.32 446.984 4.222 365.62.022a73.336 73.336 0 00-3.583 0zm73.455 146.91h211.958c44.447 2.63 70.704 17.989 89.579 40.103 19.098 22.378 29.63 53.981 29.63 86.41 0 32.429-10.532 64.17-29.63 86.547-18.799 22.026-44.635 37.654-88.752 40.38a73.33 73.33 0 00-4.548.276H147.46z" color="#000" /></svg>