<svg xmlns="http://www.w3.org/2000/svg" width="676.627" height="1000"><path d="M263.42 6.355C182.526 22.691 96.83 76.424 31.181 177.671a73.324 73.324 0 00-5.207 8.852c-31.15 67.026-33.631 136.484-10.935 191.623 22.696 55.14 64.224 92.403 106.226 119.244 84.004 53.682 171.151 70.72 207.765 75.504 6.046.962 91.114 19.677 144.239 53.113 26.762 16.844 44.764 36.188 52.071 53.113 6.781 15.707 7.078 34.245-6.77 67.172-46.4 68.264-92.122 95.197-133.823 103.623-43.164 8.72-86.257-1.797-112.995-14.06a73.324 73.324 0 00-.52 0c-62.49-28.453-110.393-108.83-110.393-108.83a73.317 73.317 0 00-98.936-30.721 73.317 73.317 0 00-30.722 98.936s56.97 118.022 179.126 173.919c50.577 23.196 122.205 40.814 203.08 24.473 80.874-16.34 167.002-70.138 232.76-171.315a73.324 73.324 0 005.206-8.852c31.35-67.456 32.63-137.59 8.853-192.665-23.778-55.076-66.441-92.044-108.83-118.723-84.777-53.36-170.106-69.827-202.558-74.463a73.324 73.324 0 00-1.043-.52c-10.307-1.348-95.463-19.948-147.361-53.113-25.95-16.583-43.1-35.336-49.989-52.072-6.353-15.434-5.926-34.744 7.81-67.693 46.466-68.887 92.419-95.677 134.345-104.143 43.211-8.726 86.217 1.933 112.475 14.06a73.324 73.324 0 00.52 0c62.771 28.498 110.392 108.829 110.392 108.829a73.317 73.317 0 0098.936 30.722 73.317 73.317 0 0030.723-98.936S588.906 86.68 466.499 30.828h-.52C415.476 7.587 344.112-9.938 263.42 6.356z" color="#000" /></svg>