<svg xmlns="http://www.w3.org/2000/svg" width="693.235" height="1000"><path d="M73.938 0A73.833 73.833 0 000 73.938v589.933C3.338 770.28 47.961 858.48 113.791 915.573 179.621 972.67 263.542 1000 346.617 1000c83.076 0 166.997-27.331 232.827-84.426 65.83-57.094 110.453-145.294 113.79-251.704V73.938A73.833 73.833 0 00619.822 0a73.833 73.833 0 00-73.938 73.938V659.15c-2.193 69.915-27.104 113.662-62.926 144.73-35.821 31.068-85.723 48.243-136.34 48.243-50.616 0-99.993-17.175-135.815-48.243-35.821-31.068-60.733-74.815-62.926-144.73V73.938A73.833 73.833 0 0073.938 0z" color="#000" /></svg>