<svg xmlns="http://www.w3.org/2000/svg" width="846.875" height="1000"><path d="M209.375 0C94.602 0 0 94.065 0 208.857c0 114.784 94.602 209.375 209.375 209.37 114.777 0 209.896-94.582 209.896-209.374C419.271 94.065 324.151 0 209.375 0zm498.437 51.043a73.334 73.334 0 00-58.851 29.166L80.73 831.251a73.334 73.334 0 0014.06 102.603 73.334 73.334 0 00102.603-14.06l568.755-751.042a73.334 73.334 0 00-14.585-103.124 73.334 73.334 0 00-43.748-14.59zm-498.437 95.312c35.792 0 63.02 27.262 63.02 62.498 0 35.24-27.224 62.502-63.02 62.502-35.792 0-63.02-27.261-63.02-62.502 0-35.236 27.224-62.498 63.02-62.498zM636.98 581.25c-114.773 0-209.375 94.587-209.375 209.375 0 114.792 94.602 209.375 209.375 209.375 114.777 0 209.896-94.583 209.896-209.375 0-114.788-95.123-209.375-209.896-209.375zm0 146.873c35.792 0 63.02 27.266 63.02 62.502 0 35.24-27.224 62.502-63.02 62.502-35.792 0-63.02-27.261-63.02-62.502 0-35.236 27.224-62.498 63.02-62.498z" color="#000"/></svg>