<svg xmlns="http://www.w3.org/2000/svg" width="534.523" height="1000"><path d="M267.193 0a73.33 73.33 0 00-73.447 73.447v38.03c-60.563 16.962-122.184 60.234-168.665 134.91l-3.167 4.135-1.516 4.686c-24.219 54.153-26.68 111.76-8.405 157.912 18.274 46.156 51.93 77.461 84.88 99.352 65.907 43.79 129.626 56.304 160.4 60.495h-.968c-.635-.071 63.454 14.612 98.388 37.482 17.465 11.433 27.655 23.508 31.28 32.243 3.136 7.57 2.293 18.338-4.687 37.066-31.386 47.625-60.14 65.06-84.88 70.28-25.913 5.461-53.235-1.18-69.317-8.822-37.232-17.688-71.788-75.099-71.788-75.099a73.33 73.33 0 00-98.529-32.243 73.33 73.33 0 00-32.239 98.385s41.73 94.495 140.137 141.244c8.825 4.192 18.77 7.949 29.076 11.437v42.168A73.33 73.33 0 00267.19 1000a73.33 73.33 0 0072.895-72.892v-38.317c60.82-16.773 123.273-59.708 169.905-134.626l2.483-4.135 2.203-4.686c24.404-54.57 25.878-112.774 6.75-158.88-19.124-46.106-53.359-77.223-86.536-98.94-66.353-43.434-128.7-55.786-156.676-59.943h-1.13c-3.484-.492-65.824-15.11-99.488-37.478-16.834-11.187-26.226-22.689-29.628-31.283-2.955-7.476-1.988-19.124 5.235-38.445 31.517-48.015 60.057-64.63 84.884-69.861 25.909-5.461 53.095 1.32 69.173 8.957 37.236 17.689 71.932 74.96 71.932 74.96a73.33 73.33 0 0098.388 32.243 73.33 73.33 0 0032.383-98.385s-41.737-94.36-140.144-141.104c-9.034-4.298-19.174-8.262-29.76-11.853V73.447A73.33 73.33 0 00267.163 0z" color="#000"/></svg>