<svg xmlns="http://www.w3.org/2000/svg" width="704.249" height="1000"><path d="M306.62 0C167.185 0 53.406 115.62 53.406 255.285c0 49.198 14.627 95.033 39.008 134.257a73.353 73.353 0 0010.477 16.819l19.435 23.433C40.903 492.67-6.636 593.72.753 700.65c9.69 140.29 111.678 257.867 249.083 285.609 99.284 20.05 199.174-11.339 270.72-77.466l53.897 64.925a73.353 73.353 0 00103.105 9.373 73.353 73.353 0 009.374-103.105l-78.705-94.836 86.562-153.695a73.353 73.353 0 00-28.12-100.075 73.353 73.353 0 00-33.358-9.373A73.353 73.353 0 00566.6 559.5L507.736 664.12 372.1 500.777c107.675-29.556 187.74-128.648 187.74-245.496C559.838 115.616 446.059 0 306.62 0zm0 146.389c59.27 0 106.832 47.649 106.832 108.896S365.89 363.629 306.62 363.629c-27.886 0-52.838-10.696-71.676-28.12l-18.194-21.777c-10.356-16.74-16.403-36.635-16.403-58.447 0-61.247 47.006-108.896 106.273-108.896zm-90.422 396.3l211.038 253.905c-38.01 38.922-93.003 56.905-148.184 45.763-72.609-14.665-126.683-76.317-131.914-152.04-4.12-59.698 23.21-114.716 69.06-147.628z" color="#000"/></svg>