<svg xmlns="http://www.w3.org/2000/svg" width="724.351" height="1000"><path d="M362.412 0a73.346 73.346 0 00-73.451 73.451v202.636L96.22 213.574a73.346 73.346 0 00-92.724 46.888A73.346 73.346 0 0050.9 352.668l192.74 62.51L124.352 579.78a73.346 73.346 0 0016.15 102.1 73.346 73.346 0 00102.622-16.139l119.29-164.088L481.18 665.74a73.346 73.346 0 00102.622 16.139 73.346 73.346 0 0016.15-102.1L481.184 415.69l192.737-63.03a73.346 73.346 0 0046.885-92.206 73.346 73.346 0 00-92.202-46.881l-192.74 62.513V73.447A73.346 73.346 0 00362.412 0z" color="#000"/></svg>