<svg xmlns="http://www.w3.org/2000/svg" width="927.796" height="1000"><path d="M328.155 0a69.275 77.632 46.63 00-81.805 73.436l-22.136 194.272H117.967a69.275 77.632 46.63 00-81.286 73.436 69.275 77.632 46.63 0064.55 73.437h106.25l-19.464 170.835H81.767A69.275 77.632 46.63 00.488 658.852a69.275 77.632 46.63 0064.547 73.44h106.25l-22.133 194.272A69.275 77.632 46.63 00214.224 1000a69.275 77.632 46.63 0081.805-73.436l22.132-194.268h238.542L534.57 926.564A69.275 77.632 46.63 00599.12 1000a69.275 77.632 46.63 0081.805-73.436l22.133-194.268h106.25a69.275 77.632 46.63 0081.804-73.44 69.275 77.632 46.63 00-65.068-73.437h-106.25l19.464-170.835h106.25a69.275 77.632 46.63 0081.804-73.436 69.275 77.632 46.63 00-65.072-73.436H755.99l22.137-194.276A69.275 77.632 46.63 00713.05 0a69.275 77.632 46.63 00-81.283 73.436l-22.137 194.272H371.09L393.227 73.44A69.275 77.632 46.63 00328.155 0zm26.203 414.584h238.541L573.435 585.42H334.893z" color="#000"/></svg>