<svg xmlns="http://www.w3.org/2000/svg" width="999.961" height="1000"><path d="M519.793.397C408.58-4.006 295.847 28.15 201.525 98.268 12.881 238.497-52.483 492.773 44.663 706.812c97.145 214.043 331.39 331.542 561.14 281.879a73.353 73.353 0 0056.24-87.111 73.353 73.353 0 00-87.53-56.24c-163.08 35.248-327.467-47.524-396.421-199.45a352.745 352.745 0 01110.96-429.775c133.901-99.535 318.222-92.168 443.839 17.642 118.98 104.006 146.034 270.997 80.769 412.549-31.673 13.417-69.612 11.754-79.257-16.128V355.194a73.353 73.353 0 00-73.467-73.47 73.353 73.353 0 00-54.992 24.673c-33.684-20.16-72.507-32.527-114.271-32.527-123.852 0-226.054 102.202-226.054 226.054 0 123.848 102.202 225.639 226.054 225.639 39.534 0 76.316-11.218 108.752-29.36 53.133 119.487 215.65 150.146 318.956 67.956a73.36 73.36 0 0018.198-22.469c113.753-205.694 68.633-463.64-108.34-618.34C740.752 45.997 631.002 4.8 519.793.4zm-28.12 420.406c44.565 0 79.117 34.553 79.117 79.121 0 44.56-34.552 79.257-79.117 79.257-44.568 0-79.257-34.696-79.257-79.257 0-44.568 34.689-79.12 79.257-79.12z" color="#000"/></svg>