<svg xmlns="http://www.w3.org/2000/svg" width="736.95" height="1000"><path d="M73.416 0a73.335 73.335 0 00-41.668 13.021 73.335 73.335 0 00-18.75 102.086L279.67 500.012 12.998 884.917a73.335 73.335 0 0018.75 102.085 73.335 73.335 0 00102.086-18.75l234.901-339.591 234.901 339.59a73.335 73.335 0 00101.565 18.751 73.335 73.335 0 0018.75-102.086L457.8 500.012l266.152-384.905a73.335 73.335 0 00-18.75-102.086 73.335 73.335 0 00-101.566 18.75l-234.9 339.592L133.833 31.772A73.335 73.335 0 0073.416 0z" color="#000" /></svg>